<?xml version="1.0" encoding="UTF-8" standalone="no"?>
<svg
   xmlns:dc="http://purl.org/dc/elements/1.1/"
   xmlns:cc="http://creativecommons.org/ns#"
   xmlns:rdf="http://www.w3.org/1999/02/22-rdf-syntax-ns#"
   xmlns:svg="http://www.w3.org/2000/svg"
   xmlns="http://www.w3.org/2000/svg"
   id="svg892"
   version="1.1"
   viewBox="0 0 24 24">
  <metadata
     id="metadata898">
    <rdf:RDF>
      <cc:Work
         rdf:about="">
        <dc:format>image/svg+xml</dc:format>
        <dc:type
           rdf:resource="http://purl.org/dc/dcmitype/StillImage" />
        <dc:title></dc:title>
      </cc:Work>
    </rdf:RDF>
  </metadata>
  <defs
     id="defs896">
    <clipPath
       id="clipPath916"
       clipPathUnits="userSpaceOnUse">
      <path
         id="path914"
         d="m 232.379,389.791 h 34.806 v -34.806 h -34.806 z" />
    </clipPath>
  </defs>
  <g
     id="g2477"
     transform="matrix(0.09952241,0.07788858,0.07788858,-0.09952241,-40.078401,28.067856)">
    <g
       transform="translate(273.5955,311.5037)"
       id="g854">
      <path
         id="path856"
         style="fill:#ff5628;fill-opacity:1;fill-rule:nonzero;stroke:none"
         d="m 0,0 c -0.001,-13.031 -23.596,-49.254 -23.596,-49.254 0,0 -23.594,36.223 -23.594,49.254 0,13.031 10.564,29.74 23.594,29.74 C -10.564,29.74 0,13.031 0,0" />
    </g>
    <g
       transform="translate(268.1834,315.5203)"
       id="g858">
      <path
         id="path860"
         style="fill:#ff911e;fill-opacity:1;fill-rule:nonzero;stroke:none"
         d="m 0,0 c 0,-10.042 -18.184,-37.958 -18.184,-37.958 0,0 -18.183,27.916 -18.183,37.958 0,10.042 8.141,22.918 18.183,22.918 C -8.141,22.918 0,10.042 0,0" />
    </g>
    <g
       transform="translate(264.1658,320.2962)"
       id="g862">
      <path
         id="path864"
         style="fill:#ffbe11;fill-opacity:1;fill-rule:nonzero;stroke:none"
         d="m 0,0 c 0,-7.824 -14.166,-29.571 -14.166,-29.571 0,0 -14.166,21.747 -14.166,29.571 0,7.824 6.342,17.855 14.166,17.855 C -6.342,17.855 0,7.824 0,0" />
    </g>
    <g
       transform="translate(259.2556,324.4007)"
       id="g866">
      <path
         id="path868"
         style="fill:#ffe35f;fill-opacity:1;fill-rule:nonzero;stroke:none"
         d="m 0,0 c 0,-5.112 -9.256,-19.321 -9.256,-19.321 0,0 -9.256,14.209 -9.256,19.321 0,5.112 4.144,11.667 9.256,11.667 C -4.144,11.667 0,5.112 0,0" />
    </g>
    <g
       transform="translate(215.2,283.4119)"
       id="g870">
      <path
         id="path872"
         style="fill:#ff3d6d;fill-opacity:1;fill-rule:nonzero;stroke:none"
         d="M 0,0 -26.968,50.503 1.167,63.777 9.958,16.114 Z" />
    </g>
    <g
       transform="translate(284.8006,283.4119)"
       id="g874">
      <path
         id="path876"
         style="fill:#b43167;fill-opacity:1;fill-rule:nonzero;stroke:none"
         d="M 0,0 26.968,50.503 -1.167,63.777 -9.959,16.114 Z" />
    </g>
    <g
       transform="translate(249.9939,458.0301)"
       id="g878">
      <path
         id="path880"
         style="fill:#ffffff;fill-opacity:1;fill-rule:nonzero;stroke:none"
         d="M 0,0 V -0.001 0 C 0,0 -56.624,-49.515 -26.495,-149.255 H -6.081 0 26.495 C 56.624,-49.515 0,0 0,0" />
    </g>
    <g
       transform="translate(276.489,308.7752)"
       id="g882">
      <path
         id="path884"
         style="fill:#e5dee9;fill-opacity:1;fill-rule:nonzero;stroke:none"
         d="M 0,0 C 30.129,99.74 -26.495,149.255 -26.495,149.255 V 0 Z" />
    </g>
    <g
       transform="translate(249.9939,316.3826)"
       id="g886">
      <path
         id="path888"
         style="fill:#306594;fill-opacity:1;fill-rule:nonzero;stroke:none"
         d="m 0,0 h -7.614 -21.027 c 0.664,-2.505 1.37,-5.036 2.146,-7.607 H -6.081 0 26.495 c 0.776,2.571 1.483,5.102 2.147,7.607 z" />
    </g>
    <g
       transform="translate(242.908,407.8601)"
       id="g890">
      <path
         id="path892"
         style="fill:#ff3d6d;fill-opacity:1;fill-rule:nonzero;stroke:none"
         d="M 0,0 H 7.086 36.271 C 26.153,33.49 7.086,50.17 7.086,50.17 v -0.002 0.002 c 0,0 -19.067,-16.68 -29.185,-50.17 z" />
    </g>
    <g
       transform="translate(249.9939,458.0301)"
       id="g894">
      <path
         id="path896"
         style="fill:#b43167;fill-opacity:1;fill-rule:nonzero;stroke:none"
         d="M 0,0 V -0.001 -50.17 H 29.186 C 19.067,-16.681 0.001,0 0,0" />
    </g>
    <g
       transform="translate(272.1658,372.1756)"
       id="g898">
      <path
         id="path900"
         style="fill:#306594;fill-opacity:1;fill-rule:nonzero;stroke:none"
         d="m 0,0 c 0,-12.245 -9.927,-22.171 -22.172,-22.171 -12.245,0 -22.171,9.926 -22.171,22.171 0,12.245 9.926,22.171 22.171,22.171 C -9.927,22.171 0,12.245 0,0" />
    </g>
    <g
       transform="translate(267.6297,372.1756)"
       id="g902">
      <path
         id="path904"
         style="fill:#64d5f1;fill-opacity:1;fill-rule:nonzero;stroke:none"
         d="m 0,0 c 0,-9.74 -7.896,-17.636 -17.636,-17.636 -9.739,0 -17.635,7.896 -17.635,17.636 0,9.74 7.896,17.636 17.635,17.636 C -7.896,17.636 0,9.74 0,0" />
    </g>
    <g
       transform="translate(249.9939,373.5096)"
       id="g906">
      <path
         id="path908"
         style="fill:#2aacc1;fill-opacity:1;fill-rule:nonzero;stroke:none"
         d="m 0,0 c -6.797,0 -12.686,-3.851 -15.63,-9.485 2.944,-5.634 8.833,-9.485 15.63,-9.485 6.797,0 12.687,3.851 15.631,9.485 C 12.687,-3.851 6.797,0 0,0" />
    </g>
    <g
       id="g910">
      <g
         id="g912" />
      <g
         id="g928">
        <g
           style="opacity:0.42999303"
           id="g926"
           clip-path="url(#clipPath916)">
          <g
             id="g920"
             transform="translate(250.406,389.7908)">
            <path
               id="path918"
               style="fill:#ffffff;fill-opacity:1;fill-rule:nonzero;stroke:none"
               d="m 0,0 -18.027,-18.027 c 0.119,-5.146 2.437,-9.74 6.057,-12.888 L 12.888,-6.058 C 9.739,-2.438 5.146,-0.119 0,0" />
          </g>
          <g
             id="g924"
             transform="translate(267.1853,376.0667)">
            <path
               id="path922"
               style="fill:#ffffff;fill-opacity:1;fill-rule:nonzero;stroke:none"
               d="m 0,0 c -0.187,0.827 -0.436,1.628 -0.733,2.406 l -22.755,-22.755 c 0.778,-0.297 1.579,-0.547 2.405,-0.733 z" />
          </g>
        </g>
      </g>
    </g>
    <g
       transform="translate(222.0696,411.7898)"
       id="g930">
      <path
         id="path932"
         style="fill:#ffffff;fill-opacity:1;fill-rule:nonzero;stroke:none"
         d="M 0,0 H 55.849 C 55.433,1.239 55.005,2.45 54.568,3.639 H 1.281 C 0.843,2.45 0.416,1.239 0,0" />
    </g>
    <g
       transform="translate(249.9939,295.7888)"
       id="g934">
      <path
         id="path936"
         style="fill:#ff3d6d;fill-opacity:1;fill-rule:nonzero;stroke:none"
         d="M 0,0 V 50.648 L -3.206,41.187 Z" />
    </g>
    <g
       transform="translate(249.9939,295.7888)"
       id="g938">
      <path
         id="path940"
         style="fill:#b43167;fill-opacity:1;fill-rule:nonzero;stroke:none"
         d="M 0,0 V 50.648 L 3.206,41.187 Z" />
    </g>
    <g
       transform="translate(228.971,312.5789)"
       id="g942">
      <path
         id="path944"
         style="fill:#ffffff;fill-opacity:1;fill-rule:nonzero;stroke:none"
         d="m 0,0 c 0,-0.904 -0.733,-1.638 -1.638,-1.638 -0.904,0 -1.637,0.734 -1.637,1.638 0,0.904 0.733,1.637 1.637,1.637 C -0.733,1.637 0,0.904 0,0" />
    </g>
    <g
       transform="translate(236.9583,312.5789)"
       id="g946">
      <path
         id="path948"
         style="fill:#ffffff;fill-opacity:1;fill-rule:nonzero;stroke:none"
         d="m 0,0 c 0,-0.904 -0.733,-1.638 -1.638,-1.638 -0.904,0 -1.637,0.734 -1.637,1.638 0,0.904 0.733,1.637 1.637,1.637 C -0.733,1.637 0,0.904 0,0" />
    </g>
    <g
       transform="translate(244.9451,312.5789)"
       id="g950">
      <path
         id="path952"
         style="fill:#ffffff;fill-opacity:1;fill-rule:nonzero;stroke:none"
         d="m 0,0 c 0,-0.904 -0.733,-1.638 -1.637,-1.638 -0.905,0 -1.638,0.734 -1.638,1.638 0,0.904 0.733,1.637 1.638,1.637 C -0.733,1.637 0,0.904 0,0" />
    </g>
    <g
       transform="translate(258.3181,312.5789)"
       id="g954">
      <path
         id="path956"
         style="fill:#ffffff;fill-opacity:1;fill-rule:nonzero;stroke:none"
         d="m 0,0 c 0,-0.904 -0.733,-1.638 -1.638,-1.638 -0.904,0 -1.637,0.734 -1.637,1.638 0,0.904 0.733,1.637 1.637,1.637 C -0.733,1.637 0,0.904 0,0" />
    </g>
    <g
       transform="translate(266.3055,312.5789)"
       id="g958">
      <path
         id="path960"
         style="fill:#ffffff;fill-opacity:1;fill-rule:nonzero;stroke:none"
         d="m 0,0 c 0,-0.904 -0.733,-1.638 -1.638,-1.638 -0.904,0 -1.637,0.734 -1.637,1.638 0,0.904 0.733,1.637 1.637,1.637 C -0.733,1.637 0,0.904 0,0" />
    </g>
    <g
       transform="translate(274.2918,312.5789)"
       id="g962">
      <path
         id="path964"
         style="fill:#ffffff;fill-opacity:1;fill-rule:nonzero;stroke:none"
         d="m 0,0 c 0,-0.904 -0.732,-1.638 -1.637,-1.638 -0.904,0 -1.637,0.734 -1.637,1.638 0,0.904 0.733,1.637 1.637,1.637 C -0.732,1.637 0,0.904 0,0" />
    </g>
  </g>
</svg>
